<mxfile host="app.diagrams.net" modified="2022-06-01T16:12:14.118Z" agent="5.0 (X11)" etag="i2fsjpOctVxA-0wWXO5P" version="18.2.0" type="github">
  <diagram id="UxG0UKwU2IfmdhEMBfZP" name="第 1 页">
    <mxGraphModel dx="569" dy="302" grid="1" gridSize="10" guides="1" tooltips="1" connect="1" arrows="1" fold="1" page="1" pageScale="1" pageWidth="827" pageHeight="1169" math="0" shadow="0">
      <root>
        <mxCell id="0" />
        <mxCell id="1" parent="0" />
        <mxCell id="l0Zn-UT2FPtFdLCkOAeR-10" style="edgeStyle=none;rounded=0;orthogonalLoop=1;jettySize=auto;html=1;exitX=0;exitY=1;exitDx=0;exitDy=0;endArrow=none;endFill=0;" edge="1" parent="1" source="l0Zn-UT2FPtFdLCkOAeR-1" target="l0Zn-UT2FPtFdLCkOAeR-2">
          <mxGeometry relative="1" as="geometry" />
        </mxCell>
        <mxCell id="l0Zn-UT2FPtFdLCkOAeR-14" style="edgeStyle=none;rounded=0;orthogonalLoop=1;jettySize=auto;html=1;exitX=1;exitY=1;exitDx=0;exitDy=0;endArrow=none;endFill=0;" edge="1" parent="1" source="l0Zn-UT2FPtFdLCkOAeR-1" target="l0Zn-UT2FPtFdLCkOAeR-3">
          <mxGeometry relative="1" as="geometry" />
        </mxCell>
        <mxCell id="l0Zn-UT2FPtFdLCkOAeR-1" value="" style="ellipse;whiteSpace=wrap;html=1;aspect=fixed;" vertex="1" parent="1">
          <mxGeometry x="290" y="90" width="20" height="20" as="geometry" />
        </mxCell>
        <mxCell id="l0Zn-UT2FPtFdLCkOAeR-11" style="edgeStyle=none;rounded=0;orthogonalLoop=1;jettySize=auto;html=1;exitX=0;exitY=1;exitDx=0;exitDy=0;endArrow=none;endFill=0;" edge="1" parent="1" source="l0Zn-UT2FPtFdLCkOAeR-2" target="l0Zn-UT2FPtFdLCkOAeR-4">
          <mxGeometry relative="1" as="geometry" />
        </mxCell>
        <mxCell id="l0Zn-UT2FPtFdLCkOAeR-12" style="edgeStyle=none;rounded=0;orthogonalLoop=1;jettySize=auto;html=1;exitX=1;exitY=1;exitDx=0;exitDy=0;endArrow=none;endFill=0;" edge="1" parent="1" source="l0Zn-UT2FPtFdLCkOAeR-2" target="l0Zn-UT2FPtFdLCkOAeR-5">
          <mxGeometry relative="1" as="geometry" />
        </mxCell>
        <mxCell id="l0Zn-UT2FPtFdLCkOAeR-2" value="" style="ellipse;whiteSpace=wrap;html=1;aspect=fixed;" vertex="1" parent="1">
          <mxGeometry x="210" y="130" width="20" height="20" as="geometry" />
        </mxCell>
        <mxCell id="l0Zn-UT2FPtFdLCkOAeR-15" style="edgeStyle=none;rounded=0;orthogonalLoop=1;jettySize=auto;html=1;exitX=0;exitY=1;exitDx=0;exitDy=0;entryX=1;entryY=0;entryDx=0;entryDy=0;endArrow=none;endFill=0;" edge="1" parent="1" source="l0Zn-UT2FPtFdLCkOAeR-3" target="l0Zn-UT2FPtFdLCkOAeR-6">
          <mxGeometry relative="1" as="geometry" />
        </mxCell>
        <mxCell id="l0Zn-UT2FPtFdLCkOAeR-16" style="edgeStyle=none;rounded=0;orthogonalLoop=1;jettySize=auto;html=1;exitX=1;exitY=1;exitDx=0;exitDy=0;endArrow=none;endFill=0;" edge="1" parent="1" source="l0Zn-UT2FPtFdLCkOAeR-3" target="l0Zn-UT2FPtFdLCkOAeR-7">
          <mxGeometry relative="1" as="geometry" />
        </mxCell>
        <mxCell id="l0Zn-UT2FPtFdLCkOAeR-3" value="" style="ellipse;whiteSpace=wrap;html=1;aspect=fixed;" vertex="1" parent="1">
          <mxGeometry x="370" y="130" width="20" height="20" as="geometry" />
        </mxCell>
        <mxCell id="l0Zn-UT2FPtFdLCkOAeR-13" style="edgeStyle=none;rounded=0;orthogonalLoop=1;jettySize=auto;html=1;exitX=1;exitY=1;exitDx=0;exitDy=0;endArrow=none;endFill=0;" edge="1" parent="1" source="l0Zn-UT2FPtFdLCkOAeR-4" target="l0Zn-UT2FPtFdLCkOAeR-8">
          <mxGeometry relative="1" as="geometry" />
        </mxCell>
        <mxCell id="l0Zn-UT2FPtFdLCkOAeR-4" value="" style="ellipse;whiteSpace=wrap;html=1;aspect=fixed;" vertex="1" parent="1">
          <mxGeometry x="170" y="170" width="20" height="20" as="geometry" />
        </mxCell>
        <mxCell id="l0Zn-UT2FPtFdLCkOAeR-5" value="" style="ellipse;whiteSpace=wrap;html=1;aspect=fixed;" vertex="1" parent="1">
          <mxGeometry x="250" y="170" width="20" height="20" as="geometry" />
        </mxCell>
        <mxCell id="l0Zn-UT2FPtFdLCkOAeR-6" value="" style="ellipse;whiteSpace=wrap;html=1;aspect=fixed;" vertex="1" parent="1">
          <mxGeometry x="330" y="170" width="20" height="20" as="geometry" />
        </mxCell>
        <mxCell id="l0Zn-UT2FPtFdLCkOAeR-7" value="" style="ellipse;whiteSpace=wrap;html=1;aspect=fixed;" vertex="1" parent="1">
          <mxGeometry x="413.5" y="170" width="20" height="20" as="geometry" />
        </mxCell>
        <mxCell id="l0Zn-UT2FPtFdLCkOAeR-8" value="" style="ellipse;whiteSpace=wrap;html=1;aspect=fixed;" vertex="1" parent="1">
          <mxGeometry x="190" y="210" width="20" height="20" as="geometry" />
        </mxCell>
      </root>
    </mxGraphModel>
  </diagram>
</mxfile>
